<svg xmlns="http://www.w3.org/2000/svg" xmlns:xlink="http://www.w3.org/1999/xlink" width="500" zoomAndPan="magnify" viewBox="0 0 375 374.999991" height="500" preserveAspectRatio="xMidYMid meet" version="1.0"><defs><clipPath id="b1f17d06ab"><path d="M 138.28125 106.308594 L 280.78125 106.308594 L 280.78125 256.308594 L 138.28125 256.308594 Z M 138.28125 106.308594 " clip-rule="nonzero"/></clipPath><clipPath id="28a4537cc0"><path d="M 134.683594 102.214844 L 277.183594 102.214844 L 277.183594 252.214844 L 134.683594 252.214844 Z M 134.683594 102.214844 " clip-rule="nonzero"/></clipPath></defs><g clip-path="url(#b1f17d06ab)"><path fill="#100f0d" d="M 252.949219 138.332031 L 252.625 138.675781 C 252.183594 138.925781 251.832031 139.28125 251.609375 139.730469 L 248.09375 143.394531 C 247.757812 143.519531 247.433594 143.695312 247.164062 143.960938 C 246.875 144.25 246.703125 144.605469 246.589844 144.96875 L 202.976562 190.453125 C 202.539062 190.914062 202.296875 191.515625 202.296875 192.160156 L 202.296875 244.210938 C 202.296875 245.507812 203.3125 246.59375 204.617188 246.660156 L 240.285156 248.644531 C 240.996094 248.683594 241.539062 249.269531 241.539062 249.96875 C 241.539062 250.707031 240.945312 251.300781 240.207031 251.300781 L 159.480469 251.300781 C 158.742188 251.300781 158.148438 250.707031 158.148438 249.96875 C 158.148438 249.269531 158.695312 248.683594 159.40625 248.644531 L 195.074219 246.660156 C 196.375 246.59375 197.390625 245.507812 197.390625 244.210938 L 197.390625 192.160156 C 197.390625 191.515625 197.152344 190.914062 196.710938 190.453125 L 146.738281 138.332031 Z M 246.445312 111.316406 C 262.675781 111.316406 275.878906 124.535156 275.878906 140.785156 C 275.878906 157.039062 262.675781 170.257812 246.445312 170.257812 C 241.550781 170.257812 236.777344 169.050781 232.515625 166.746094 L 234.316406 164.855469 C 238.070312 166.757812 242.21875 167.800781 246.445312 167.800781 C 261.324219 167.800781 273.425781 155.683594 273.425781 140.785156 C 273.425781 125.886719 261.324219 113.773438 246.445312 113.773438 C 234.34375 113.773438 223.75 121.925781 220.492188 133.417969 L 217.953125 133.417969 C 221.257812 120.640625 233.03125 111.316406 246.445312 111.316406 Z M 243.992188 162.726562 C 241.886719 162.496094 239.824219 161.96875 237.871094 161.152344 L 243.992188 154.773438 Z M 258.804688 159.089844 C 255.910156 161.058594 252.539062 162.34375 248.898438 162.746094 L 248.898438 150.609375 C 248.898438 150.332031 248.820312 150.074219 248.734375 149.824219 L 249.136719 149.410156 Z M 255.050781 143.242188 L 268.375 143.242188 C 267.828125 148.105469 265.703125 152.480469 262.53125 155.878906 L 252.53125 145.863281 Z M 262.578125 125.753906 C 265.722656 129.140625 267.839844 133.496094 268.375 138.332031 L 259.753906 138.332031 L 260.480469 137.574219 C 261.160156 136.863281 261.351562 135.816406 260.960938 134.914062 C 260.578125 134.003906 259.695312 133.417969 258.710938 133.417969 L 256.457031 133.417969 Z M 229.21875 127.011719 L 235.621094 133.417969 L 225.644531 133.417969 C 226.480469 131.058594 227.695312 128.910156 229.21875 127.011719 Z M 242.554688 133.417969 L 232.6875 123.527344 C 235.878906 120.976562 239.777344 119.316406 243.992188 118.835938 L 243.992188 133.417969 Z M 248.898438 133.417969 L 248.898438 118.828125 C 252.566406 119.242188 255.96875 120.546875 258.871094 122.53125 L 250.171875 133.417969 Z M 192.488281 193.148438 L 192.488281 241.882812 L 159.136719 243.742188 C 155.832031 243.925781 153.246094 246.660156 153.246094 249.96875 C 153.246094 253.414062 156.042969 256.214844 159.480469 256.214844 L 240.207031 256.214844 C 243.648438 256.214844 246.445312 253.414062 246.445312 249.96875 C 246.445312 246.660156 243.859375 243.925781 240.554688 243.742188 L 207.203125 241.882812 L 207.203125 193.148438 L 229.019531 170.390625 C 234.289062 173.511719 240.277344 175.167969 246.445312 175.167969 C 265.378906 175.167969 280.78125 159.742188 280.78125 140.785156 C 280.78125 121.832031 265.378906 106.40625 246.445312 106.40625 C 230.371094 106.40625 216.34375 117.886719 212.933594 133.417969 L 140.980469 133.417969 C 139.996094 133.417969 139.113281 134.003906 138.730469 134.914062 C 138.335938 135.816406 138.527344 136.863281 139.207031 137.574219 L 192.488281 193.148438 " fill-opacity="1" fill-rule="nonzero"/></g><path fill="#100f0d" d="M 199.84375 182.585938 C 203.464844 182.585938 207.097656 181.203125 209.855469 178.441406 L 211.390625 176.90625 C 212.347656 175.945312 212.347656 174.390625 211.390625 173.433594 C 210.433594 172.472656 208.878906 172.472656 207.921875 173.433594 L 206.390625 174.96875 C 202.777344 178.585938 196.914062 178.585938 193.300781 174.96875 L 171.429688 153.066406 L 231.730469 153.066406 C 233.082031 153.066406 234.183594 151.964844 234.183594 150.609375 C 234.183594 149.257812 233.082031 148.15625 231.730469 148.15625 L 166.523438 148.15625 L 162.335938 143.960938 C 161.378906 143.003906 159.828125 143.003906 158.867188 143.960938 C 157.910156 144.921875 157.910156 146.476562 158.867188 147.433594 L 189.832031 178.441406 C 192.59375 181.203125 196.222656 182.585938 199.84375 182.585938 " fill-opacity="1" fill-rule="nonzero"/><g clip-path="url(#28a4537cc0)"><path fill="#ffde59" d="M 249.5 134.234375 L 249.175781 134.582031 C 248.734375 134.832031 248.378906 135.1875 248.160156 135.636719 L 244.636719 139.300781 C 244.300781 139.425781 243.976562 139.597656 243.707031 139.867188 C 243.417969 140.15625 243.246094 140.511719 243.132812 140.875 L 199.464844 186.355469 C 199.023438 186.816406 198.78125 187.421875 198.78125 188.0625 L 198.78125 240.117188 C 198.78125 241.414062 199.796875 242.496094 201.101562 242.5625 L 236.820312 244.550781 C 237.527344 244.589844 238.074219 245.171875 238.074219 245.875 C 238.074219 246.613281 237.480469 247.207031 236.742188 247.207031 L 155.910156 247.207031 C 155.171875 247.207031 154.574219 246.613281 154.574219 245.875 C 154.574219 245.171875 155.121094 244.589844 155.832031 244.550781 L 191.546875 242.5625 C 192.851562 242.496094 193.871094 241.414062 193.871094 240.117188 L 193.871094 188.0625 C 193.871094 187.421875 193.628906 186.816406 193.1875 186.355469 L 143.148438 134.234375 Z M 242.988281 107.222656 C 259.238281 107.222656 272.457031 120.441406 272.457031 136.691406 C 272.457031 152.941406 259.238281 166.164062 242.988281 166.164062 C 238.085938 166.164062 233.308594 164.953125 229.039062 162.652344 L 230.84375 160.761719 C 234.601562 162.660156 238.757812 163.707031 242.988281 163.707031 C 257.886719 163.707031 270.003906 151.589844 270.003906 136.691406 C 270.003906 121.792969 257.886719 109.675781 242.988281 109.675781 C 230.871094 109.675781 220.261719 117.832031 217 129.324219 L 214.457031 129.324219 C 217.765625 116.546875 229.558594 107.222656 242.988281 107.222656 Z M 240.53125 158.632812 C 238.421875 158.402344 236.359375 157.875 234.402344 157.058594 L 240.53125 150.679688 Z M 255.363281 154.996094 C 252.464844 156.960938 249.089844 158.25 245.445312 158.652344 L 245.445312 146.515625 C 245.445312 146.238281 245.367188 145.976562 245.28125 145.730469 L 245.683594 145.316406 Z M 251.601562 139.148438 L 264.945312 139.148438 C 264.398438 144.011719 262.269531 148.386719 259.09375 151.78125 L 249.078125 141.765625 Z M 259.144531 121.660156 C 262.289062 125.046875 264.410156 129.402344 264.945312 134.234375 L 256.3125 134.234375 L 257.042969 133.476562 C 257.722656 132.769531 257.914062 131.722656 257.523438 130.820312 C 257.136719 129.910156 256.253906 129.324219 255.265625 129.324219 L 253.011719 129.324219 Z M 225.738281 122.914062 L 232.148438 129.324219 L 222.160156 129.324219 C 222.996094 126.964844 224.214844 124.816406 225.738281 122.914062 Z M 239.09375 129.324219 L 229.210938 119.433594 C 232.40625 116.882812 236.3125 115.222656 240.53125 114.742188 L 240.53125 129.324219 Z M 245.445312 129.324219 L 245.445312 114.734375 C 249.117188 115.144531 252.523438 116.449219 255.429688 118.4375 L 246.71875 129.324219 Z M 188.957031 189.050781 L 188.957031 237.785156 L 155.5625 239.648438 C 152.253906 239.828125 149.664062 242.5625 149.664062 245.875 C 149.664062 249.316406 152.464844 252.117188 155.910156 252.117188 L 236.742188 252.117188 C 240.1875 252.117188 242.988281 249.316406 242.988281 245.875 C 242.988281 242.5625 240.398438 239.828125 237.089844 239.648438 L 203.695312 237.785156 L 203.695312 189.050781 L 225.539062 166.296875 C 230.8125 169.414062 236.808594 171.074219 242.988281 171.074219 C 261.945312 171.074219 277.371094 155.648438 277.371094 136.691406 C 277.371094 117.734375 261.945312 102.308594 242.988281 102.308594 C 226.890625 102.308594 212.84375 113.792969 209.429688 129.324219 L 137.382812 129.324219 C 136.394531 129.324219 135.515625 129.910156 135.128906 130.820312 C 134.738281 131.722656 134.929688 132.769531 135.609375 133.476562 L 188.957031 189.050781 " fill-opacity="1" fill-rule="nonzero"/></g><path fill="#ffde59" d="M 196.324219 178.488281 C 199.953125 178.488281 203.589844 177.109375 206.351562 174.34375 L 207.886719 172.8125 C 208.84375 171.851562 208.84375 170.296875 207.886719 169.339844 C 206.925781 168.378906 205.371094 168.378906 204.414062 169.339844 L 202.878906 170.871094 C 199.261719 174.488281 193.390625 174.488281 189.773438 170.871094 L 167.871094 148.972656 L 228.253906 148.972656 C 229.605469 148.972656 230.707031 147.867188 230.707031 146.515625 C 230.707031 145.164062 229.605469 144.058594 228.253906 144.058594 L 162.960938 144.058594 L 158.769531 139.867188 C 157.808594 138.90625 156.253906 138.90625 155.296875 139.867188 C 154.335938 140.828125 154.335938 142.378906 155.296875 143.339844 L 186.300781 174.34375 C 189.0625 177.109375 192.699219 178.488281 196.324219 178.488281 " fill-opacity="1" fill-rule="nonzero"/></svg>